<svg width="601" height="231" viewBox="0 0 601 231" fill="none" xmlns="http://www.w3.org/2000/svg">
<g filter="url(#filter0_d_1_5)">
<path d="M183.423 111.987L179.893 114.431C179.677 114.58 179.474 114.746 179.285 114.927L176.969 117.141C176.576 117.517 176.507 118.119 176.804 118.574C177.19 119.166 178.018 119.262 178.529 118.774L184.393 113.177C184.705 112.878 184.711 112.381 184.406 112.076C184.143 111.813 183.729 111.775 183.423 111.987Z" fill="#FF5500"/>
<path d="M99.302 179.655L92.6437 184.576C92.2295 184.883 91.6538 184.84 91.2896 184.476C90.8916 184.077 90.8824 183.435 91.269 183.026L96.3054 177.693L97.1094 176.969C98.496 175.721 100.606 177.241 99.8622 178.951C99.7405 179.231 99.5473 179.474 99.302 179.655Z" fill="#FF5500"/>
<path d="M55.697 136.386L51.3182 140.765C50.8604 141.223 50.9021 141.977 51.4077 142.381C51.8307 142.72 52.4384 142.695 52.8323 142.323L57.3344 138.071C57.8157 137.616 57.8265 136.854 57.3585 136.386C56.8997 135.927 56.1558 135.927 55.697 136.386Z" fill="#FF5500"/>
<path d="M61.4548 147.999L54.2412 154.44C53.8221 154.814 53.7687 155.451 54.1197 155.889C54.5079 156.375 55.2287 156.422 55.6773 155.992L62.6593 149.301C62.8339 149.134 62.9326 148.903 62.9326 148.661C62.9326 147.895 62.0264 147.489 61.4548 147.999Z" fill="#4E008E"/>
<path d="M75.1329 166.504L64.0283 177.609C63.5249 178.112 63.7272 178.969 64.4026 179.194C64.7421 179.307 65.1164 179.222 65.3729 178.972L76.6329 168.025C76.9149 167.751 77.0235 167.344 76.9153 166.966C76.6916 166.183 75.7089 165.928 75.1329 166.504Z" fill="#FF5500"/>
<path d="M133.68 51.2101L128.615 55.6146C127.925 56.2143 128.349 57.3483 129.263 57.3483C129.515 57.3483 129.757 57.2522 129.94 57.0798L134.828 52.4793C135.146 52.1806 135.188 51.6911 134.927 51.3424C134.628 50.9448 134.055 50.8839 133.68 51.2101Z" fill="#FF5500"/>
<path fill-rule="evenodd" clip-rule="evenodd" d="M54.141 98.5357L122.947 54.2177C120.395 53.9069 117.798 53.747 115.163 53.747C86.59 53.747 62.3872 72.5592 54.141 98.5357Z" fill="#4E008E"/>
<path d="M54.02 98.5357C52.0586 104.714 51 111.298 51 118.131C51 119.032 51.0184 119.928 51.0549 120.82L135.593 57.1335C131.507 55.7424 127.235 54.7548 122.826 54.2177L54.02 98.5357Z" fill="#FF5500"/>
<path d="M148.77 63.2797C144.665 60.7174 140.249 58.609 135.593 57.0242L51.0549 120.711C51.1412 122.824 51.3289 124.91 51.613 126.966L148.77 63.2797Z" fill="#4E008E"/>
<path d="M148.84 63.3056L51.6828 126.991C52.5254 133.087 54.2168 138.909 56.633 144.333L154.439 67.2288C152.647 65.8248 150.778 64.5147 148.84 63.3056Z" fill="#FF5500"/>
<path d="M154.405 67.2655L56.5988 144.37C58.4321 148.486 60.6827 152.373 63.2966 155.977L164.431 77.0505C161.453 73.435 158.09 70.1521 154.405 67.2655Z" fill="#4E008E"/>
<path d="M164.424 77.0972L63.2898 156.024C67.3414 161.61 72.2657 166.516 77.8612 170.538L171.943 88.4992C169.838 84.4243 167.312 80.6043 164.424 77.0972Z" fill="#FF5500"/>
<path d="M171.982 88.5675L77.9006 170.606C82.4731 173.893 87.4939 176.591 92.8529 178.588L177.575 103.93C176.357 98.5187 174.461 93.3663 171.982 88.5675Z" fill="#4E008E"/>
<path d="M180.593 118.267C180.593 113.363 180.048 108.588 179.015 103.998L94.2928 178.656C96.773 179.58 99.3255 180.355 101.94 180.968L180.593 118.267Z" fill="#FF5500"/>
<path d="M101.94 181.036C106.633 182.137 111.524 182.719 116.551 182.719C117.466 182.719 118.376 182.7 119.282 182.662L179.98 127.28C180.384 124.357 180.593 121.371 180.593 118.336L101.94 181.036Z" fill="#4E008E"/>
<path d="M179.98 127.348C175.772 157.787 150.396 181.418 119.282 182.73L179.98 127.348Z" fill="#FF5500"/>
<path d="M171.289 118.303C171.289 148.846 146.376 173.606 115.645 173.606C84.9129 173.606 60 148.846 60 118.303C60 87.7601 84.9129 63 115.645 63C146.376 63 171.289 87.7601 171.289 118.303Z" fill="#F4F4F4"/>
<path d="M67.235 81.9389L55.9787 91.0656C55.5113 91.4446 54.833 91.4093 54.4075 90.9838C53.9092 90.4855 53.9584 89.6639 54.5124 89.2285L65.9071 80.2754C66.6055 79.7268 67.6289 80.2242 67.6289 81.1122C67.6289 81.4331 67.4842 81.7368 67.235 81.9389Z" fill="#4E008E"/>
<path d="M182.581 94.0247L177.453 97.8702C176.814 98.3495 175.895 98.1038 175.58 97.3694C175.351 96.8343 175.527 96.2119 176.002 95.8761L180.519 92.6876C180.778 92.5048 181.088 92.4066 181.405 92.4066H182.041C182.538 92.4066 182.94 92.8092 182.94 93.3055C182.94 93.5885 182.807 93.855 182.581 94.0247Z" fill="#4E008E"/>
<path d="M159.11 58.0662L150.045 65.4316C149.57 65.8178 149.466 66.5022 149.806 67.0117C150.203 67.6076 151.034 67.7187 151.574 67.2485L160.382 59.5771C160.742 59.2627 160.826 58.7349 160.58 58.3245C160.271 57.8093 159.577 57.6873 159.11 58.0662Z" fill="#FF5500"/>
<path d="M104.774 118.783C103.92 118.926 103.255 118.053 103.62 117.267L107.461 109.003L116.929 98.1384C118.409 96.4399 120.422 95.2945 122.638 94.8899L126.14 94.2507C126.437 94.1964 126.744 94.2602 126.996 94.4285C127.371 94.6799 127.567 95.1259 127.499 95.5724L122.614 127.311C122.14 130.387 121.376 133.41 120.403 136.366C119.762 138.312 119.215 140.066 119.215 140.364C119.215 140.852 117.205 145.596 115.909 148.58C115.707 149.044 115.135 149.211 114.714 148.929C114.583 148.842 114.48 148.718 114.419 148.573L113.818 147.165C113.619 146.7 113.232 146.343 112.753 146.182C112.006 145.932 111.513 145.224 111.551 144.437C112.073 133.557 113.693 113.145 116.528 109.003L104.774 118.783Z" fill="#FF5500"/>
<path d="M184.35 134.082L175.303 142.193C175.226 142.262 175.138 142.318 175.044 142.36C174.041 142.799 173.191 141.502 173.993 140.757L182.897 132.489C183.424 132 184.273 132.154 184.595 132.797C184.812 133.232 184.712 133.758 184.35 134.082Z" fill="#FF5500"/>
<path d="M218.477 115.602C218.477 119.282 219.097 122.102 220.337 124.062C221.617 126.022 223.897 127.002 227.177 127.002C230.457 127.002 232.977 125.982 234.737 123.942C236.497 121.902 237.377 118.802 237.377 114.642V87.522H233.477V86.382H242.237V87.522H238.937V114.222C238.937 119.182 237.837 122.882 235.637 125.322C233.437 127.762 229.537 128.982 223.937 128.982C218.377 128.982 214.117 127.822 211.157 125.502C208.237 123.182 206.777 119.202 206.777 113.562V87.522H203.477V86.382H222.377V87.522H218.477V115.602ZM243.188 99.822H257.648V105.342C258.968 101.262 261.868 99.222 266.348 99.222C270.868 99.222 273.608 101.382 274.568 105.702C275.968 101.382 278.908 99.222 283.388 99.222C289.268 99.222 292.208 102.562 292.208 109.242V127.302H295.568V128.382H278.948V127.302H281.048V107.802C281.048 104.762 280.788 102.982 280.268 102.462C280.028 102.222 279.708 102.102 279.308 102.102C278.148 102.102 277.128 102.882 276.248 104.442C275.368 106.002 274.928 107.982 274.928 110.382V127.302H277.088V128.382H261.668V127.302H263.768V107.802C263.768 104.762 263.508 102.982 262.988 102.462C262.748 102.222 262.428 102.102 262.028 102.102C260.908 102.102 259.888 102.962 258.968 104.682C258.088 106.362 257.648 108.382 257.648 110.742V127.302H259.808V128.382H243.188V127.302H246.488V100.902H243.188V99.822Z" fill="#FF5500"/>
<path d="M297.109 86.382H328.309L328.909 98.262H327.829C326.149 94.222 324.389 91.462 322.549 89.982C320.709 88.462 318.009 87.702 314.449 87.702H312.349V106.242H314.389C316.269 106.242 317.849 105.542 319.129 104.142C320.409 102.702 321.309 100.782 321.829 98.382H322.729V116.142H321.709C320.989 113.142 320.009 111.002 318.769 109.722C317.569 108.442 315.909 107.802 313.789 107.802H312.349V127.062H314.629C318.309 127.062 321.429 125.962 323.989 123.762C326.589 121.562 328.369 118.742 329.329 115.302H330.529L330.049 128.382H297.109V127.062H300.649V87.702H297.109V86.382ZM334.392 128.982V118.242H335.112C336.152 121.722 337.552 124.162 339.312 125.562C341.072 126.962 343.272 127.662 345.912 127.662C349.992 127.662 352.032 126.362 352.032 123.762C352.032 122.642 351.532 121.802 350.532 121.242C348.972 120.362 346.972 119.682 344.532 119.202C341.812 118.482 339.532 117.522 337.692 116.322C335.492 114.882 334.392 112.602 334.392 109.482C334.392 106.362 335.352 103.882 337.272 102.042C339.192 100.162 341.752 99.222 344.952 99.222C346.912 99.222 348.932 99.682 351.012 100.602C351.772 100.922 352.352 101.082 352.752 101.082C353.152 101.082 353.492 100.942 353.772 100.662C354.052 100.382 354.392 99.862 354.792 99.102H355.452V108.282H354.732C352.692 103.082 349.532 100.482 345.252 100.482C343.372 100.482 341.972 100.822 341.052 101.502C340.132 102.142 339.672 102.962 339.672 103.962C339.672 104.562 339.812 105.042 340.092 105.402C340.372 105.722 340.592 105.962 340.752 106.122C340.912 106.282 341.172 106.462 341.532 106.662C341.892 106.822 342.192 106.962 342.432 107.082C342.672 107.162 343.032 107.282 343.512 107.442C344.032 107.602 344.412 107.702 344.652 107.742C347.372 108.422 349.332 109.022 350.532 109.542C351.732 110.022 352.872 110.622 353.952 111.342C356.152 112.862 357.252 115.322 357.252 118.722C357.252 122.082 356.252 124.642 354.252 126.402C352.252 128.122 349.512 128.982 346.032 128.982C343.552 128.982 341.152 128.402 338.832 127.242C338.352 126.922 337.972 126.762 337.692 126.762C336.812 126.762 335.952 127.502 335.112 128.982H334.392ZM361.442 119.802V100.902H358.142V99.822H361.442V92.082L372.602 89.322V99.822H380.402V100.902H372.602V121.122C372.602 123.002 372.782 124.382 373.142 125.262C373.542 126.142 374.342 126.582 375.542 126.582C376.742 126.582 377.782 125.982 378.662 124.782C379.582 123.582 380.182 121.942 380.462 119.862L381.482 119.982C381.162 122.742 380.282 124.942 378.842 126.582C377.402 128.182 375.022 128.982 371.702 128.982C368.382 128.982 365.842 128.322 364.082 127.002C362.322 125.682 361.442 123.282 361.442 119.802ZM390.875 95.682C388.755 95.682 387.235 95.142 386.315 94.062C385.435 92.982 384.995 91.642 384.995 90.042C384.995 88.442 385.475 87.122 386.435 86.082C387.435 85.042 388.935 84.522 390.935 84.522C392.935 84.522 394.455 85.002 395.495 85.962C396.535 86.882 397.055 88.222 397.055 89.982C397.055 91.702 396.555 93.082 395.555 94.122C394.555 95.162 392.995 95.682 390.875 95.682ZM381.815 99.822H396.515V127.302H399.875V128.382H382.055V127.302H385.355V100.902H381.815V99.822ZM400.858 83.382H415.558V127.302H418.918V128.382H401.098V127.302H404.398V84.462H400.858V83.382ZM439.462 116.562V111.462C439.462 107.582 439.242 104.762 438.802 103.002C438.402 101.202 437.442 100.302 435.922 100.302C435.042 100.302 434.322 100.562 433.762 101.082C433.242 101.562 432.862 102.382 432.622 103.542C432.262 105.342 432.082 108.082 432.082 111.762V116.442C432.082 120.802 432.202 123.422 432.442 124.302C432.722 125.182 433.002 125.902 433.282 126.462C433.722 127.422 434.582 127.902 435.862 127.902C437.422 127.902 438.442 127.002 438.922 125.202C439.282 123.922 439.462 121.042 439.462 116.562ZM435.742 128.982C430.742 128.982 426.962 127.702 424.402 125.142C421.842 122.582 420.562 118.922 420.562 114.162C420.562 109.362 421.922 105.682 424.642 103.122C427.402 100.522 431.262 99.222 436.222 99.222C441.182 99.222 444.882 100.422 447.322 102.822C449.762 105.182 450.982 108.802 450.982 113.682C450.982 123.882 445.902 128.982 435.742 128.982Z" fill="#4E008E"/>
</g>
<defs>
<filter id="filter0_d_1_5" x="0" y="0" width="454.982" height="231" filterUnits="userSpaceOnUse" color-interpolation-filters="sRGB">
<feFlood flood-opacity="0" result="BackgroundImageFix"/>
<feColorMatrix in="SourceAlpha" type="matrix" values="0 0 0 0 0 0 0 0 0 0 0 0 0 0 0 0 0 0 127 0" result="hardAlpha"/>
<feOffset dy="4"/>
<feGaussianBlur stdDeviation="2"/>
<feComposite in2="hardAlpha" operator="out"/>
<feColorMatrix type="matrix" values="0 0 0 0 0 0 0 0 0 0 0 0 0 0 0 0 0 0 0.35 0"/>
<feBlend mode="normal" in2="BackgroundImageFix" result="effect1_dropShadow_1_5"/>
<feBlend mode="normal" in="SourceGraphic" in2="effect1_dropShadow_1_5" result="shape"/>
</filter>
</defs>
</svg>
